<svg width="30" height="30" viewBox="0 0 30 30" fill="none" xmlns="http://www.w3.org/2000/svg">
<path d="M22.8016 10.1111H24.0983C25.1494 10.1111 26.0001 10.9618 26.0001 12.0129V24.0994C26.0001 25.1493 25.1494 26 24.0983 26H10.7908C9.73967 26 8.889 25.1493 8.889 24.0982V22.3333M10.5757 4V6.44444M17.909 4V6.44444M10.3434 11.3333H17.6768M10.3434 16.2222H17.6768M5.22356 22.3333H19.0493C19.867 22.3333 20.6297 21.9251 21.0831 21.2443L21.9802 19.8974C22.5156 19.0944 22.8016 18.1509 22.8016 17.1853V7.66667C22.8016 6.31611 21.7077 5.22222 20.3571 5.22222H8.13489C6.78434 5.22222 5.69045 6.31611 5.69045 7.66667V16.2907C5.69045 17.0497 5.51323 17.7977 5.17467 18.4772L4.13089 20.5648C3.72389 21.3776 4.31545 22.3333 5.22356 22.3333Z" stroke="#0C9D4F" stroke-linecap="round" stroke-linejoin="round"/>
</svg>
