<svg width="30" height="30" viewBox="0 0 30 30" fill="none" xmlns="http://www.w3.org/2000/svg">
<path d="M16.25 3.75V15H27.5" stroke="#05B4CD" stroke-linecap="round" stroke-linejoin="round"/>
<path d="M6.89746 8.75C8.23832 6.74319 10.189 5.22081 12.4615 4.40768C14.7339 3.59455 17.2076 3.5338 19.5172 4.23439C21.8268 4.93499 23.8499 6.35978 25.2877 8.29834C26.7254 10.2369 27.5016 12.5865 27.5016 15C27.5016 17.4135 26.7254 19.7631 25.2877 21.7017C23.8499 23.6402 21.8268 25.065 19.5172 25.7656C17.2076 26.4662 14.7339 26.4054 12.4615 25.5923C10.189 24.7792 8.23832 23.2568 6.89746 21.25" stroke="#05B4CD" stroke-linecap="round" stroke-linejoin="round"/>
<path d="M13.75 8.75H6.25C4.86929 8.75 3.75 9.86929 3.75 11.25V18.75C3.75 20.1307 4.86929 21.25 6.25 21.25H13.75C15.1307 21.25 16.25 20.1307 16.25 18.75V11.25C16.25 9.86929 15.1307 8.75 13.75 8.75Z" stroke="#05B4CD" stroke-linecap="round" stroke-linejoin="round"/>
<path d="M8.02148 12.4724H11.1465C11.478 12.4724 11.7959 12.6041 12.0304 12.8385C12.2648 13.0729 12.3965 13.3909 12.3965 13.7224V14.3474C12.3965 14.6789 12.2648 14.9969 12.0304 15.2313C11.7959 15.4657 11.478 15.5974 11.1465 15.5974H8.02148" stroke="#05B4CD" stroke-linecap="round" stroke-linejoin="round"/>
<path d="M8.02148 17.4724V12.4724" stroke="#05B4CD" stroke-linecap="round" stroke-linejoin="round"/>
</svg>
