<svg width="30" height="30" viewBox="0 0 30 30" fill="none" xmlns="http://www.w3.org/2000/svg">
<path d="M8.88892 8.88889V6.44444C8.88892 5.79614 9.14645 5.17438 9.60488 4.71596C10.0633 4.25754 10.6851 4 11.3334 4H23.5556C24.2039 4 24.8256 4.25754 25.2841 4.71596C25.7425 5.17438 26 5.79614 26 6.44444V23.5556C26 24.2039 25.7425 24.8256 25.2841 25.284C24.8256 25.7425 24.2039 26 23.5556 26H11.3334C10.6851 26 10.0633 25.7425 9.60488 25.284C9.14645 24.8256 8.88892 24.2039 8.88892 23.5556V21.1111" stroke="#3A71FF" stroke-linecap="round" stroke-linejoin="round"/>
<path d="M13.7778 8.88892H6.44444C5.09441 8.88892 4 9.98333 4 11.3334V18.6667C4 20.0167 5.09441 21.1111 6.44444 21.1111H13.7778C15.1278 21.1111 16.2222 20.0167 16.2222 18.6667V11.3334C16.2222 9.98333 15.1278 8.88892 13.7778 8.88892Z" stroke="#3A71FF" stroke-linecap="round" stroke-linejoin="round"/>
<path d="M25.9999 11.4312H16.2222" stroke="#3A71FF" stroke-linecap="round" stroke-linejoin="round"/>
<path d="M25.9999 18.6667H16.2222" stroke="#3A71FF" stroke-linecap="round" stroke-linejoin="round"/>
<path d="M7.36108 12.8611L7.9722 17.1389H8.37431L10.1111 13.4722L11.8479 17.1389H12.25L12.8611 12.8611" stroke="#3A71FF" stroke-linecap="round" stroke-linejoin="round"/>
</svg>
