<svg width="30" height="30" viewBox="0 0 30 30" fill="none" xmlns="http://www.w3.org/2000/svg">
<path d="M15 10.6249V9.37493M15 18.1249V19.3749M12.83 17.2312C13.1537 17.7612 13.7062 18.1274 14.375 18.1274H15.745C16.715 18.1274 17.5 17.3412 17.5 16.3724C17.5 15.5674 16.9513 14.8662 16.1713 14.6687L13.8275 14.0799C13.0488 13.8849 12.5 13.1837 12.5 12.3787C12.5 11.4087 13.2863 10.6237 14.255 10.6237H15.625C16.2912 10.6237 16.8438 10.9887 17.1663 11.5174M25 13.9774C25 19.6537 20.7337 24.9612 15 26.2499C9.26625 24.9612 5 19.6537 5 13.9774V9.05368C5 8.03868 5.61375 7.12368 6.55375 6.73993L12.8038 4.18243C14.2113 3.60618 15.7887 3.60618 17.1962 4.18243L23.4463 6.73993C24.3863 7.12493 25 8.03868 25 9.05368V13.9774Z" stroke="white" stroke-linecap="round" stroke-linejoin="round"/>
</svg>
