<svg width="30" height="30" viewBox="0 0 30 30" fill="none" xmlns="http://www.w3.org/2000/svg">
<path d="M2.17663 15.2008C1.94112 14.7643 1.94112 14.2348 2.17663 13.7983C5.01471 8.54963 10.2574 4 15.5 4C20.7426 4 25.9853 8.54963 28.8234 13.7998C29.0589 14.2363 29.0589 14.7658 28.8234 15.2023C25.9853 20.451 20.7426 25.0006 15.5 25.0006C10.2574 25.0006 5.01471 20.451 2.17663 15.2008Z" stroke="#888888" stroke-linecap="round" stroke-linejoin="round"/>
<path d="M18.682 11.3182C20.4394 13.0756 20.4394 15.925 18.682 17.6824C16.9246 19.4398 14.0753 19.4398 12.3179 17.6824C10.5605 15.925 10.5605 13.0756 12.3179 11.3182C14.0753 9.56082 16.9246 9.56082 18.682 11.3182Z" stroke="#888888" stroke-linecap="round" stroke-linejoin="round"/>
</svg>
