<svg width="30" height="30" viewBox="0 0 30 30" fill="none" xmlns="http://www.w3.org/2000/svg">
<path d="M23.0175 8.0175L19.4825 4.4825C19.0138 4.01375 18.3775 3.75 17.715 3.75H8.75C7.36875 3.75 6.25 4.86875 6.25 6.25V23.75C6.25 25.1313 7.36875 26.25 8.75 26.25H21.25C22.6313 26.25 23.75 25.1313 23.75 23.75V9.785C23.75 9.1225 23.4862 8.48625 23.0175 8.0175V8.0175Z" stroke="#FE5244" stroke-linecap="round" stroke-linejoin="round"/>
<path d="M23.75 10H18.75C18.06 10 17.5 9.44 17.5 8.75V3.75" stroke="#FE5244" stroke-linecap="round" stroke-linejoin="round"/>
<path d="M12.925 20.6875H17.075" stroke="#FE5244" stroke-linecap="round" stroke-linejoin="round"/>
<path d="M13.5413 15.9388V14.4788C13.5413 14.0763 13.8675 13.75 14.27 13.75H15.73C16.1325 13.75 16.4588 14.0763 16.4588 14.4788V15.9388C16.4588 16.3413 16.1325 16.6675 15.73 16.6675H14.27C13.8675 16.6662 13.5413 16.34 13.5413 15.9388Z" stroke="#FE5244" stroke-linecap="round" stroke-linejoin="round"/>
<path d="M10 21.7713V20.3113C10 19.9088 10.3263 19.5825 10.7288 19.5825H12.1888C12.5913 19.5825 12.9175 19.9088 12.9175 20.3113V21.7713C12.9175 22.1738 12.5913 22.5 12.1888 22.5H10.7288C10.3263 22.5 10 22.1738 10 21.7713Z" stroke="#FE5244" stroke-linecap="round" stroke-linejoin="round"/>
<path d="M17.0837 21.7713V20.3113C17.0837 19.9088 17.41 19.5825 17.8125 19.5825H19.2725C19.675 19.5825 20.0012 19.9088 20.0012 20.3113V21.7713C20 22.1738 19.6737 22.5 19.2712 22.5H17.8112C17.41 22.5 17.0837 22.1738 17.0837 21.7713V21.7713Z" stroke="#FE5244" stroke-linecap="round" stroke-linejoin="round"/>
<path d="M17.8001 19.5874L15.9126 16.6375" stroke="#FE5244" stroke-linecap="round" stroke-linejoin="round"/>
<path d="M12.2 19.5874L14.0875 16.6375" stroke="#FE5244" stroke-linecap="round" stroke-linejoin="round"/>
</svg>
