<svg width="18" height="18" viewBox="0 0 18 18" fill="none" xmlns="http://www.w3.org/2000/svg">
<path d="M15.2736 6.03945L14.9667 6.43411L14.9669 6.43427L15.2736 6.03945ZM10.4736 2.30585L10.1665 2.70041L10.1667 2.70051L10.4736 2.30585ZM7.52645 2.30585L7.2195 1.91115L7.21946 1.91118L7.52645 2.30585ZM2.72645 6.03945L3.03323 6.43427L3.03343 6.43411L2.72645 6.03945ZM10.6968 8.50345L10.3431 8.85685L10.3433 8.857L10.6968 8.50345ZM15.5806 5.64478L10.7806 1.91118L10.1667 2.70051L14.9667 6.43411L15.5806 5.64478ZM10.7808 1.91129C9.73367 1.09624 8.26717 1.09641 7.2195 1.91115L7.83339 2.70054C8.52013 2.16649 9.48082 2.16666 10.1665 2.70041L10.7808 1.91129ZM7.21946 1.91118L2.41946 5.64478L3.03343 6.43411L7.83343 2.70051L7.21946 1.91118ZM2.41967 5.64463C1.71273 6.19393 1.30005 7.03896 1.30005 7.93385H2.30005C2.30005 7.34714 2.57056 6.79377 3.03323 6.43427L2.41967 5.64463ZM1.30005 7.93385V13.8002H2.30005V7.93385H1.30005ZM1.30005 13.8002C1.30005 15.402 2.59831 16.7002 4.20005 16.7002V15.7002C3.15059 15.7002 2.30005 14.8497 2.30005 13.8002H1.30005ZM4.20005 16.7002H13.8V15.7002H4.20005V16.7002ZM13.8 16.7002C15.4018 16.7002 16.7 15.402 16.7 13.8002H15.7C15.7 14.8497 14.8495 15.7002 13.8 15.7002V16.7002ZM16.7 13.8002V7.93385H15.7V13.8002H16.7ZM16.7 7.93385C16.7 7.03896 16.2874 6.19393 15.5804 5.64463L14.9669 6.43427C15.4295 6.79377 15.7 7.34714 15.7 7.93385H16.7ZM10.3433 8.857C11.0856 9.59934 11.0856 10.802 10.3433 11.5443L11.0504 12.2514C12.1833 11.1185 12.1833 9.28276 11.0504 8.1499L10.3433 8.857ZM10.3433 11.5443C9.60096 12.2866 8.39834 12.2866 7.656 11.5443L6.9489 12.2514C8.08176 13.3843 9.91754 13.3843 11.0504 12.2514L10.3433 11.5443ZM7.656 11.5443C6.91366 10.802 6.91366 9.59934 7.656 8.857L6.9489 8.1499C5.81603 9.28276 5.81603 11.1185 6.9489 12.2514L7.656 11.5443ZM7.656 8.857C8.39842 8.11458 9.60172 8.1148 10.3431 8.85685L11.0506 8.15005C9.91837 7.0169 8.08167 7.01712 6.9489 8.1499L7.656 8.857Z" fill="#0C9D4F"/>
</svg>
