<svg width="30" height="30" viewBox="0 0 30 30" fill="none" xmlns="http://www.w3.org/2000/svg">
<path d="M14.7267 18.8445V25C14.7267 25.5304 14.9374 26.0391 15.3125 26.4142C15.6875 26.7893 16.1962 27 16.7267 27H23.3933C23.9238 27 24.4325 26.7893 24.8076 26.4142C25.1826 26.0391 25.3933 25.5304 25.3933 25V18.9405M26.6667 19.9592L20.8329 15.2922C20.5965 15.103 20.3028 15 20 15C19.6972 15 19.4035 15.103 19.1671 15.2922L13.3333 19.9592M9.33333 5.66667H6.66667C5.95942 5.66667 5.28115 5.94762 4.78105 6.44772C4.28095 6.94781 4 7.62609 4 8.33333V24.3333C4 25.0406 4.28095 25.7189 4.78105 26.219C5.28115 26.719 5.95942 27 6.66667 27H10.6667M20 5.66667H22.6667C23.3739 5.66667 24.0522 5.94762 24.5523 6.44772C25.0524 6.94781 25.3333 7.62609 25.3333 8.33333V13.6667M10.6667 3H18.6667C19.403 3 20 3.59695 20 4.33333V7C20 7.73638 19.403 8.33333 18.6667 8.33333H10.6667C9.93029 8.33333 9.33333 7.73638 9.33333 7V4.33333C9.33333 3.59695 9.93029 3 10.6667 3Z" stroke="#9C29AE" stroke-linecap="round" stroke-linejoin="round"/>
</svg>
