<svg width="30" height="30" viewBox="0 0 30 30" fill="none" xmlns="http://www.w3.org/2000/svg">
<path d="M11.333 12.7774V17.2217M6.44434 3H23.5547C24.9052 3 25.9991 4.09384 25.9991 5.44434V24.5547C25.9991 25.9052 24.9052 26.9991 23.5547 26.9991H6.44434C5.09384 26.9991 4 25.9052 4 24.5547V5.44434C4 4.09384 5.09384 3 6.44434 3ZM4 5.44801V24.5523C4 26.3696 5.9127 27.5515 7.53696 26.7387L14.87 24.2944C15.6986 23.8789 16.2217 23.0331 16.2217 22.1067V7.89234C16.2217 6.96594 15.6986 6.1202 14.87 5.70588L7.53696 3.26154C5.9127 2.4488 4 3.63064 4 5.44801Z" stroke="#008295" stroke-linecap="round" stroke-linejoin="round"/>
</svg>
