<svg width="30" height="30" viewBox="0 0 30 30" fill="none" xmlns="http://www.w3.org/2000/svg">
<path d="M11.8875 22.1923V22.8422C11.8875 23.2571 11.968 23.6679 12.1245 24.0512C12.2809 24.4345 12.5102 24.7827 12.7993 25.076C13.0883 25.3693 13.4315 25.6018 13.8091 25.7603C14.1867 25.9189 14.5914 26.0003 15 26C15.4087 26.0002 15.8134 25.9186 16.191 25.7599C16.5686 25.6012 16.9118 25.3685 17.2008 25.0752C17.4898 24.7818 17.7191 24.4335 17.8756 24.0501C18.032 23.6668 18.1125 23.2559 18.1125 22.8409V22.1923M22.4338 22.1923C23.1144 22.1923 23.7671 21.9178 24.2484 21.4291C24.7296 20.9404 25 20.2777 25 19.5866C24.9994 18.8555 24.7136 18.1545 24.205 17.637L22.5 15.9071V11.6154C22.5 9.59566 21.7098 7.65866 20.3033 6.23049C18.8968 4.80233 16.9891 4 15 4C13.0109 4 11.1032 4.80233 9.6967 6.23049C8.29018 7.65866 7.5 9.59566 7.5 11.6154V15.9071L5.795 17.637C5.28644 18.1545 5.00058 18.8555 5 19.5866C5 20.2777 5.27037 20.9404 5.75164 21.4291C6.2329 21.9178 6.88564 22.1923 7.56625 22.1923H22.4338Z" stroke="#008295" stroke-linecap="round" stroke-linejoin="round"/>
</svg>
