<svg width="20" height="16" viewBox="0 0 20 16" fill="none" xmlns="http://www.w3.org/2000/svg">
<path d="M1.45107 8.52223C1.29406 8.23122 1.29406 7.87821 1.45107 7.5872C3.34312 4.08811 6.83822 1.05502 10.3333 1.05502C13.8284 1.05502 17.3235 4.08811 19.2156 7.58821C19.3726 7.87921 19.3726 8.23222 19.2156 8.52323C17.3235 12.0223 13.8284 15.0554 10.3333 15.0554C6.83822 15.0554 3.34312 12.0223 1.45107 8.52223Z" stroke="#888888" stroke-linecap="round" stroke-linejoin="round"/>
<path d="M12.4547 5.93384C13.6263 7.10544 13.6263 9.00499 12.4547 10.1766C11.2831 11.3482 9.38352 11.3482 8.21191 10.1766C7.04031 9.00499 7.04031 7.10544 8.21191 5.93384C9.38352 4.76224 11.2831 4.76224 12.4547 5.93384Z" stroke="#888888" stroke-linecap="round" stroke-linejoin="round"/>
</svg>
