<svg width="30" height="30" viewBox="0 0 30 30" fill="none" xmlns="http://www.w3.org/2000/svg">
<path d="M2 25C2 21.6865 4.6865 19 8 19H14C17.3135 19 20 21.6865 20 25M20.5 5.9765C22.5715 5.9765 24.25 7.655 24.25 9.7265C24.25 11.798 22.5715 13.4765 20.5 13.4765M22 17.5C25.3135 17.5 28 20.1865 28 23.5M14.6074 6.49419C16.5996 8.48645 16.5996 11.7165 14.6074 13.7088C12.6151 15.7011 9.385 15.7011 7.39274 13.7088C5.40049 11.7165 5.40049 8.48645 7.39274 6.49419C9.385 4.50194 12.6151 4.50194 14.6074 6.49419Z" stroke="#008295" stroke-linecap="round" stroke-linejoin="round"/>
</svg>
