<svg width="140" height="140" viewBox="0 0 140 140" fill="none" xmlns="http://www.w3.org/2000/svg">
<path d="M70 49.5833V43.75M70 84.5834V90.4167M59.8734 80.4125C61.3842 82.8859 63.9625 84.595 67.0834 84.595H73.4767C78.0034 84.595 81.6667 80.9259 81.6667 76.405C81.6667 72.6484 79.1059 69.3759 75.4659 68.4542L64.5284 65.7067C60.8942 64.7967 58.3334 61.5242 58.3334 57.7675C58.3334 53.2409 62.0025 49.5775 66.5234 49.5775H72.9167C76.0259 49.5775 78.6042 51.2809 80.1092 53.7484M116.667 65.2283C116.667 91.7175 96.7575 116.486 70 122.5C43.2425 116.486 23.3334 91.7175 23.3334 65.2283V42.2508C23.3334 37.5142 26.1975 33.2442 30.5842 31.4533L59.7509 19.5183C66.3192 16.8292 73.6809 16.8292 80.2492 19.5183L109.416 31.4533C113.803 33.25 116.667 37.5142 116.667 42.2508V65.2283Z" stroke="white" stroke-width="2" stroke-linecap="round" stroke-linejoin="round"/>
</svg>
