<svg width="140" height="140" viewBox="0 0 140 140" fill="none" xmlns="http://www.w3.org/2000/svg">
<path d="M107.415 37.415L90.9184 20.9183C88.7309 18.7308 85.7617 17.5 82.67 17.5H40.8334C34.3875 17.5 29.1667 22.7208 29.1667 29.1667V110.833C29.1667 117.279 34.3875 122.5 40.8334 122.5H99.1667C105.613 122.5 110.833 117.279 110.833 110.833V45.6633C110.833 42.5717 109.603 39.6025 107.415 37.415V37.415Z" stroke="white" stroke-width="2" stroke-linecap="round" stroke-linejoin="round"/>
<path d="M110.833 46.6667H87.5C84.28 46.6667 81.6667 44.0533 81.6667 40.8333V17.5" stroke="white" stroke-width="2" stroke-linecap="round" stroke-linejoin="round"/>
<path d="M46.6667 64.1667H81.6667" stroke="white" stroke-width="2" stroke-linecap="round" stroke-linejoin="round"/>
<path d="M46.6667 81.6667H81.6667" stroke="white" stroke-width="2" stroke-linecap="round" stroke-linejoin="round"/>
<path d="M46.6667 99.1667H71.925" stroke="white" stroke-width="2" stroke-linecap="round" stroke-linejoin="round"/>
</svg>
