<svg width="140" height="140" viewBox="0 0 140 140" fill="none" xmlns="http://www.w3.org/2000/svg">
<path d="M30.4018 109.598C39.8196 100.18 52.593 94.8891 65.912 94.8889H73.4596C83.3745 94.8894 93.0675 97.8252 101.316 103.326L110.028 109.125M126 70C126 100.928 100.928 126 70 126C39.0721 126 14 100.928 14 70C14 39.0721 39.0721 14 70 14C100.928 14 126 39.0721 126 70ZM70 37.3333C80.3093 37.3333 88.6667 45.6907 88.6667 56V59.1111C88.6667 69.4204 80.3093 77.7778 70 77.7778C59.6907 77.7778 51.3333 69.4204 51.3333 59.1111V56C51.3333 45.6907 59.6907 37.3333 70 37.3333Z" stroke="white" stroke-width="2" stroke-linecap="round" stroke-linejoin="round"/>
</svg>
