<svg width="140" height="140" viewBox="0 0 140 140" fill="none" xmlns="http://www.w3.org/2000/svg">
<path d="M31.5384 81.2326L22.7317 90.0392C14.8206 71.3422 18.4482 48.9263 33.6887 33.6915C52.2032 15.177 81.321 13.791 101.461 29.465M38.5369 110.544C58.6884 126.213 87.8005 124.838 106.309 106.318C121.544 91.083 125.177 68.6671 117.266 49.9701L108.46 58.7767M58.0154 81.9798L81.9713 58.0238M83.1006 81.1014C83.6596 81.6603 83.6596 82.5615 83.1006 83.1148C82.5416 83.6738 81.6405 83.6738 81.0872 83.1148C80.5282 82.5558 80.5282 81.6546 81.0872 81.1014C81.6347 80.5424 82.5416 80.5424 83.1006 81.1014ZM58.9166 56.8831C59.4755 57.442 59.4755 58.349 58.9166 58.9022C58.3576 59.4612 57.4507 59.4612 56.8974 58.9022C56.3384 58.3432 56.3384 57.4363 56.8974 56.8831C57.4564 56.3298 58.3576 56.3298 58.9166 56.8831Z" stroke="white" stroke-width="2" stroke-linecap="round" stroke-linejoin="round"/>
</svg>
