<svg width="140" height="140" viewBox="0 0 140 140" fill="none" xmlns="http://www.w3.org/2000/svg">
<path d="M9.33337 116.667C9.33337 101.204 21.8704 88.6666 37.3334 88.6666H65.3334C80.7964 88.6666 93.3334 101.204 93.3334 116.667M95.6667 27.8902C105.334 27.8902 113.167 35.7232 113.167 45.3902C113.167 55.0572 105.334 62.8902 95.6667 62.8902M102.667 81.6666C118.13 81.6666 130.667 94.2036 130.667 109.667M68.1677 30.3061C77.4649 39.6033 77.4649 54.6771 68.1677 63.9743C58.8705 73.2715 43.7967 73.2715 34.4995 63.9743C25.2023 54.6771 25.2023 39.6033 34.4995 30.3061C43.7967 21.009 58.8705 21.009 68.1677 30.3061Z" stroke="white" stroke-width="2" stroke-linecap="round" stroke-linejoin="round"/>
</svg>
