<svg width="18" height="18" viewBox="0 0 18 18" fill="none" xmlns="http://www.w3.org/2000/svg">
<path d="M8.83591 11.3068V15C8.83591 15.3183 8.96234 15.6235 9.18738 15.8486C9.41243 16.0736 9.71765 16.2 10.0359 16.2H14.0359C14.3542 16.2 14.6594 16.0736 14.8844 15.8486C15.1095 15.6235 15.2359 15.3183 15.2359 15V11.3644M15.9999 11.9756L12.4997 9.17535C12.3578 9.06187 12.1816 9.00004 11.9999 9.00004C11.8182 9.00004 11.642 9.06187 11.5001 9.17535L7.9999 11.9756M5.5999 3.40005H3.9999C3.57556 3.40005 3.16859 3.56862 2.86853 3.86868C2.56847 4.16874 2.3999 4.5757 2.3999 5.00005V14.6C2.3999 15.0244 2.56847 15.4314 2.86853 15.7314C3.16859 16.0315 3.57556 16.2 3.9999 16.2H6.3999M11.9999 3.40005H13.5999C14.0242 3.40005 14.4312 3.56862 14.7313 3.86868C15.0313 4.16874 15.1999 4.5757 15.1999 5.00005V8.20005M6.3999 1.80005H11.1999C11.6417 1.80005 11.9999 2.15822 11.9999 2.60005V4.20005C11.9999 4.64188 11.6417 5.00005 11.1999 5.00005H6.3999C5.95807 5.00005 5.5999 4.64188 5.5999 4.20005V2.60005C5.5999 2.15822 5.95807 1.80005 6.3999 1.80005Z" stroke="#9C29AE" stroke-linecap="round" stroke-linejoin="round"/>
</svg>
