<svg width="72" height="30" viewBox="0 0 72 30" fill="none" xmlns="http://www.w3.org/2000/svg">
<g clip-path="url(#clip0)">
<path d="M28.3085 23.6861V26.0582H28.0275V23.9651H27.009V25.0116C27.009 25.3954 26.9387 25.6744 26.7982 25.814C26.6578 25.9535 26.447 26.0233 26.2012 26.0233V25.7442C26.3768 25.7791 26.4821 25.7093 26.5875 25.6047C26.6578 25.5 26.728 25.2907 26.728 25.0116V23.6512H28.3085V23.6861Z" fill="black"/>
<path d="M30.837 23.6163C31.1531 23.6163 31.4341 23.7209 31.6799 23.9651C31.9258 24.2093 32.0312 24.4884 32.0312 24.8372C32.0312 25.186 31.9258 25.5 31.6799 25.7442C31.4692 25.9884 31.1882 26.093 30.837 26.093C30.5209 26.093 30.2751 25.9884 30.0643 25.7791C29.8536 25.5698 29.7131 25.2907 29.678 24.9767H29.2214V26.0232H28.9404V23.6512H29.2214V24.6977H29.678C29.7131 24.3837 29.8185 24.1395 30.0643 23.9302C30.2751 23.7209 30.5209 23.6163 30.837 23.6163ZM30.2048 25.5349C30.3804 25.7093 30.5912 25.8139 30.837 25.8139C31.0829 25.8139 31.2936 25.7093 31.4692 25.5349C31.6448 25.3605 31.7151 25.1163 31.7151 24.8721C31.7151 24.593 31.6448 24.3837 31.4692 24.2093C31.2936 24.0349 31.0829 23.9302 30.837 23.9302C30.5912 23.9302 30.3804 24.0349 30.2048 24.2093C30.0292 24.3837 29.959 24.6279 29.959 24.8721C29.959 25.1512 30.0292 25.3605 30.2048 25.5349Z" fill="black"/>
<path d="M33.4711 26.1279C33.155 26.1279 32.874 26.0232 32.6633 25.7791C32.4525 25.5349 32.3472 25.2558 32.3472 24.907C32.3472 24.4884 32.4174 24.1744 32.5228 23.9651C32.6281 23.7558 32.874 23.5465 33.2252 23.3721C33.2955 23.3372 33.3657 23.3023 33.4711 23.2325C33.5764 23.1977 33.6467 23.1628 33.7169 23.1279C33.7872 23.093 33.8223 23.0581 33.8925 23.0232C33.9628 22.9884 33.9979 22.9186 34.033 22.8488C34.0682 22.7791 34.1033 22.7093 34.1033 22.6395L34.3491 22.7791C34.3491 22.8488 34.314 22.9186 34.2789 22.9884C34.2438 23.0581 34.2086 23.093 34.1735 23.1628C34.1384 23.1977 34.0682 23.2674 33.9979 23.3023C33.9277 23.3372 33.8574 23.3721 33.8223 23.407C33.7872 23.4418 33.7169 23.4767 33.6116 23.5116C33.5062 23.5465 33.436 23.5814 33.4008 23.6163C33.1901 23.7209 33.0496 23.8256 32.9442 23.9302C32.8389 24.0349 32.7686 24.1744 32.7335 24.3139C32.8389 24.1744 32.9794 24.0698 33.1199 24C33.2603 23.9302 33.436 23.8953 33.5764 23.8953C33.8574 23.8953 34.1033 24 34.314 24.2093C34.5247 24.4186 34.595 24.6977 34.595 25.0116C34.595 25.3256 34.4896 25.6046 34.2789 25.8139C34.0682 26.0232 33.7872 26.1279 33.4711 26.1279ZM33.4711 25.8139C33.7169 25.8139 33.8925 25.7442 34.033 25.6046C34.1735 25.4651 34.2438 25.2558 34.2438 25.0116C34.2438 24.7674 34.1735 24.593 34.033 24.4186C33.8925 24.2791 33.7169 24.1744 33.4711 24.1744C33.2603 24.1744 33.0847 24.2442 32.9091 24.3837C32.7335 24.5232 32.6633 24.6977 32.6633 24.9418C32.6633 25.186 32.7335 25.3953 32.9091 25.5349C33.0496 25.7442 33.2603 25.8139 33.4711 25.8139Z" fill="black"/>
<path d="M36.9135 25.7791C36.7028 26.0233 36.4218 26.1279 36.0706 26.1279C35.7545 26.1279 35.4735 26.0233 35.2277 25.7791C35.017 25.5349 34.8765 25.2558 34.8765 24.8721C34.8765 24.5233 34.9818 24.2093 35.2277 24C35.4735 23.7558 35.7194 23.6512 36.0706 23.6512C36.3867 23.6512 36.6677 23.7558 36.9135 24C37.1594 24.2442 37.2648 24.5233 37.2648 24.8721C37.2648 25.221 37.1243 25.5349 36.9135 25.7791ZM35.4384 25.5349C35.614 25.7093 35.8248 25.814 36.0706 25.814C36.3165 25.814 36.5272 25.7093 36.7028 25.5349C36.8784 25.3605 36.9487 25.1163 36.9487 24.8721C36.9487 24.593 36.8784 24.3837 36.7028 24.2093C36.5272 24.0349 36.3165 23.9303 36.0706 23.9303C35.8248 23.9303 35.614 24.0349 35.4384 24.2093C35.2628 24.3837 35.1926 24.6279 35.1926 24.8721C35.1926 25.1512 35.2628 25.3605 35.4384 25.5349Z" fill="black"/>
<path d="M39.1612 24.8372C39.407 24.9418 39.5124 25.1162 39.5124 25.3953C39.5124 25.6046 39.4422 25.7442 39.3368 25.8837C39.2314 26.0232 39.0558 26.0581 38.81 26.0581H37.7212V23.686H38.7046C38.9153 23.686 39.0909 23.7558 39.1963 23.8604C39.3017 23.9651 39.3719 24.1395 39.3719 24.3139C39.407 24.5581 39.3368 24.7325 39.1612 24.8372ZM38.7397 24H38.0373V24.7325H38.7397C38.9856 24.7325 39.1261 24.593 39.1261 24.3488C39.1261 24.2441 39.0909 24.1395 39.0207 24.1046C38.9505 24.0348 38.8802 24 38.7397 24ZM38.8451 25.7442C38.9856 25.7442 39.0909 25.7093 39.1612 25.6395C39.2314 25.5697 39.2666 25.4651 39.2666 25.3604C39.2666 25.2558 39.2314 25.1511 39.1612 25.0814C39.0909 25.0116 38.9856 24.9767 38.8451 24.9767H38.0373V25.7093H38.8451V25.7442Z" fill="black"/>
<path d="M40.8819 24.593C41.0927 24.593 41.2683 24.6628 41.4087 24.8023C41.5492 24.9418 41.6195 25.1162 41.6195 25.3255C41.6195 25.5348 41.5492 25.7093 41.4087 25.8488C41.2683 25.9883 41.0927 26.0581 40.8819 26.0581H39.9688V23.686H40.2497V24.593H40.8819ZM40.8819 25.7442C41.0224 25.7442 41.1278 25.7093 41.198 25.6395C41.3034 25.5697 41.3385 25.4651 41.3385 25.3255C41.3385 25.186 41.3034 25.0814 41.198 25.0116C41.1278 24.9418 41.0224 24.9069 40.8819 24.9069H40.2848V25.779H40.8819V25.7442Z" fill="black"/>
<path d="M44.2537 26.1279C43.9025 26.1279 43.6215 26.0233 43.4108 25.7791C43.2001 25.5349 43.0596 25.2558 43.0596 24.8721C43.0596 24.5233 43.1649 24.2093 43.4108 24C43.6215 23.7558 43.9025 23.6512 44.2537 23.6512C44.4645 23.6512 44.6752 23.721 44.8508 23.8256C45.0264 23.9303 45.1669 24.1047 45.2371 24.2791L44.9913 24.4186C44.921 24.2791 44.8508 24.1744 44.7103 24.0698C44.5698 24 44.4293 23.9303 44.2537 23.9303C44.0079 23.9303 43.7971 24.0349 43.6215 24.2093C43.4459 24.3837 43.3757 24.6279 43.3757 24.8721C43.3757 25.1512 43.4459 25.3605 43.6215 25.5349C43.7971 25.7093 44.0079 25.814 44.2537 25.814C44.4293 25.814 44.5698 25.7791 44.7103 25.6744C44.8508 25.6047 44.9562 25.4651 45.0264 25.3256L45.2723 25.4651C45.1669 25.6396 45.0615 25.814 44.8508 25.9186C44.6401 26.0582 44.4645 26.1279 44.2537 26.1279Z" fill="black"/>
<path d="M47.5553 23.686V26.0581H47.2743V23.9651H45.9748V26.0581H45.6587V23.686H47.5553Z" fill="black"/>
<path d="M50.0839 23.686H50.3649V26.0581H50.0839V25.6046C49.8732 25.9534 49.5922 26.1279 49.1707 26.1279C48.8546 26.1279 48.5737 26.0232 48.3629 25.779C48.1522 25.5348 48.0117 25.2558 48.0117 24.9069C48.0117 24.5581 48.1171 24.279 48.3629 24.0348C48.5737 23.7907 48.8546 23.686 49.1707 23.686C49.5571 23.686 49.8732 23.8604 50.0839 24.2093V23.686ZM48.5737 25.5348C48.7493 25.7093 48.96 25.8139 49.2059 25.8139C49.4517 25.8139 49.6624 25.7093 49.8381 25.5348C50.0137 25.3604 50.0839 25.1162 50.0839 24.872C50.0839 24.593 50.0137 24.3837 49.8381 24.2093C49.6624 24.0348 49.4517 23.9302 49.2059 23.9302C48.96 23.9302 48.7493 24.0348 48.5737 24.2093C48.3981 24.3837 48.3278 24.6279 48.3278 24.872C48.3278 25.1511 48.3981 25.3604 48.5737 25.5348Z" fill="black"/>
<path d="M52.0511 26.1279C51.6999 26.1279 51.4189 26.0233 51.2082 25.7791C50.9974 25.5349 50.8569 25.2558 50.8569 24.8721C50.8569 24.5233 50.9623 24.2093 51.2082 24C51.4189 23.7558 51.6999 23.6512 52.0511 23.6512C52.2618 23.6512 52.4725 23.721 52.6482 23.8256C52.8238 23.9303 52.9643 24.1047 53.0345 24.2791L52.7886 24.4186C52.7184 24.2791 52.6482 24.1744 52.5077 24.0698C52.3672 24 52.2267 23.9303 52.0511 23.9303C51.8052 23.9303 51.5945 24.0349 51.4189 24.2093C51.2433 24.3837 51.173 24.6279 51.173 24.8721C51.173 25.1512 51.2433 25.3605 51.4189 25.5349C51.5945 25.7093 51.8052 25.814 52.0511 25.814C52.2267 25.814 52.3672 25.7791 52.5077 25.6744C52.6482 25.6047 52.7535 25.4651 52.8238 25.3256L53.0696 25.4651C52.9643 25.6396 52.8589 25.814 52.6482 25.9186C52.4725 26.0582 52.2618 26.1279 52.0511 26.1279Z" fill="black"/>
<path d="M54.4745 23.6163C54.7906 23.6163 55.0715 23.7558 55.2823 24C55.493 24.2442 55.5984 24.5581 55.5984 24.8721C55.5984 24.907 55.5984 24.9419 55.5984 25.0116H53.6315C53.6666 25.2558 53.772 25.4302 53.9125 25.6046C54.0881 25.7442 54.2637 25.8139 54.5096 25.8139C54.6852 25.8139 54.8257 25.7791 54.931 25.7093C55.0715 25.6395 55.1418 25.5349 55.212 25.4302L55.4579 25.6046C55.3525 25.7791 55.212 25.9186 55.0715 25.9884C54.8959 26.093 54.7203 26.1279 54.4745 26.1279C54.1232 26.1279 53.8423 26.0233 53.6315 25.7791C53.4208 25.5349 53.3154 25.2558 53.3154 24.8721C53.3154 24.5233 53.4208 24.2093 53.6315 23.9651C53.8774 23.7558 54.1584 23.6163 54.4745 23.6163ZM54.4745 23.9302C54.2286 23.9302 54.053 24 53.8774 24.1395C53.7369 24.2791 53.6315 24.4884 53.5964 24.6977H55.2471C55.212 24.4535 55.1418 24.2442 54.9662 24.1046C54.8608 24 54.6852 23.9302 54.4745 23.9302Z" fill="black"/>
<path d="M57.6002 23.686V24H56.7924V26.093H56.5114V24H55.7036V23.686H57.6002Z" fill="black"/>
<path d="M61.2528 23.686V26.0581H60.9718V24.1744L60.1991 25.5348H60.164L59.3913 24.1744V26.0581H59.1104V23.686H59.4616L60.2343 24.9767L61.0069 23.686H61.2528Z" fill="black"/>
<path d="M63.5004 23.686H63.7463V26.0581H63.4653V24.2093L62.1306 26.0581H61.8848V23.686H62.1657V25.5348L63.5004 23.686Z" fill="black"/>
<path d="M65.5731 23.6163C65.8892 23.6163 66.1701 23.7209 66.3809 23.9651C66.5916 24.2093 66.7321 24.4884 66.7321 24.8372C66.7321 25.186 66.6267 25.4651 66.3809 25.7093C66.1701 25.9535 65.8892 26.0581 65.5731 26.0581C65.1867 26.0581 64.8706 25.8837 64.6599 25.5349V26.9651H64.3789V23.6163H64.6599V24.0698C64.8706 23.7907 65.1867 23.6163 65.5731 23.6163ZM64.9409 25.5349C65.1165 25.7093 65.3272 25.814 65.5731 25.814C65.8189 25.814 66.0297 25.7093 66.2053 25.5349C66.3809 25.3605 66.4511 25.1163 66.4511 24.8721C66.4511 24.593 66.3809 24.3837 66.2053 24.2093C66.0297 24.0349 65.8189 23.9302 65.5731 23.9302C65.3272 23.9302 65.1165 24.0349 64.9409 24.2093C64.7652 24.3837 64.695 24.6279 64.695 24.8721C64.6599 25.1512 64.7652 25.3605 64.9409 25.5349Z" fill="black"/>
<path d="M28.6946 0.0697696C28.6595 0.348839 28.6595 0.662792 28.6244 0.906978C28.4839 1.74419 28.2029 2.51163 27.7463 3.2093C27.079 4.15117 26.2009 4.77908 25.077 5.12791C24.4097 5.33722 23.7775 5.44187 23.0751 5.47675C22.4078 5.51164 21.7405 5.47675 21.0731 5.40698C21.038 5.40698 21.0029 5.40698 20.9678 5.3721C21.0029 5.09303 21.0029 4.77908 21.038 4.50001C21.1785 3.59303 21.4946 2.7907 22.0917 2.09302C22.6888 1.32558 23.4966 0.83721 24.3746 0.488373C25.0419 0.244188 25.7795 0.104653 26.4819 0.0348858C27.1844 -0.0348815 27.9219 2.11503e-06 28.6946 0.0697696Z" fill="#2AB53F"/>
<path d="M13.9785 15.2888C14.119 15.3935 14.1541 15.4186 14.2594 15.5233C14.3648 15.6279 14.4702 15.6977 14.5755 15.8023C14.7511 15.9768 14.9619 16.1163 15.1375 16.2907C15.1726 16.3256 15.2429 16.3605 15.278 16.3954C15.3833 16.4651 15.4536 16.5698 15.559 16.6744C15.7346 16.814 15.875 16.9535 16.0155 17.0582C16.156 17.1977 16.3316 17.3372 16.4721 17.4419C16.6829 17.6163 17.1746 17.7209 17.3853 17.8953C17.0692 18.1395 16.2263 18.9419 15.9102 19.1861C15.3833 19.6047 14.8214 20.0233 14.2946 20.407C14.2594 20.4419 14.2594 20.4419 14.2243 20.4768C14.0487 20.3023 13.8731 20.1279 13.6975 19.9884C13.6272 19.9186 13.5921 19.8837 13.5219 19.8489C13.4165 19.7442 13.3463 19.6744 13.2409 19.5698C13.2058 19.5349 13.1707 19.5349 13.1707 19.5C13.1004 19.4302 13.0302 19.3954 12.9599 19.3256L12.9248 19.2907C12.8546 19.2209 12.7843 19.1512 12.6789 19.0814C12.5385 18.9419 12.398 18.8372 12.2575 18.6977C11.9414 18.4186 11.5902 18.1744 11.2741 17.8954C11.1687 17.7907 11.0282 17.6861 10.9229 17.5814C10.958 17.5465 10.9931 17.5465 11.0282 17.5116C11.9414 16.9535 13.1707 15.9167 13.9785 15.2888Z" fill="url(#paint0_linear)"/>
<path d="M16.3667 23.3372C16.2262 23.3372 16.156 23.1279 16.1911 23.0233C16.2613 23.1279 16.3316 23.2326 16.3667 23.3372Z" fill="#6AB24B"/>
<path d="M21.881 9.80232C21.8459 9.48837 21.8459 9.13953 21.7756 8.82558C21.6703 8.33721 21.5298 7.88372 21.3542 7.43023C21.0381 6.6279 20.5815 5.93023 19.9844 5.30232C19.6683 4.98837 19.3522 4.67442 18.9659 4.43023C18.3337 4.01163 17.6664 3.69767 16.9288 3.48837C16.3668 3.31397 15.8049 3.2442 15.2429 3.2442C14.8215 3.2442 14.4 3.27909 13.9786 3.31397C13.522 3.38374 13.1005 3.4535 12.6439 3.59302C12.082 3.76744 11.52 4.01163 10.9932 4.2907C10.9229 4.32558 10.8878 4.36046 10.8176 4.32558C9.97465 3.83721 9.13173 3.48837 8.18343 3.34885C7.79709 3.27909 7.41075 3.2442 6.98929 3.2442C6.67319 3.2442 6.35709 3.27909 6.04099 3.31397C5.61953 3.38374 5.23319 3.4535 4.84685 3.55814C3.89856 3.83721 3.0205 4.2907 2.24782 4.95349C1.61563 5.47674 1.12392 6.10465 0.737576 6.83721C0.351235 7.74418 0.0702591 8.72093 0.0351372 9.69767C1.52513e-05 10.3256 1.5256e-05 10.9535 0.140503 11.5465C0.316113 12.5233 0.702455 13.4303 1.26441 14.2675C1.61563 14.7907 1.96684 15.2791 2.38831 15.7675C2.77465 16.2209 3.19611 16.6744 3.61758 17.093C4.24977 17.6861 4.88197 18.2093 5.54929 18.7674C5.93563 19.1163 6.35709 19.4302 6.77856 19.7442C7.51612 20.3023 8.25368 20.7907 8.99124 21.3489C9.65856 21.8372 10.2556 22.3954 10.8527 22.9535C11.3093 23.3721 11.7659 23.8605 12.1171 24.3838C12.3629 24.7326 12.6088 25.0814 12.7142 25.4651C12.7142 25.5349 12.7493 25.6046 12.7142 25.6395C12.5737 25.9186 12.4332 26.1977 12.2225 26.407C11.801 26.8953 11.5903 27.4884 11.6956 28.1163C11.8361 28.9884 12.3278 29.5814 13.1708 29.8256C14.0137 30.1046 14.7864 29.8954 15.3834 29.2326C15.9454 28.6396 16.3317 27.9419 16.6829 27.2093C16.9288 26.7209 17.0342 26.1628 16.999 25.6046C16.999 25.1512 16.9288 24.7326 16.7883 24.3139C16.6829 23.9651 16.5776 23.6163 16.3668 23.2674C16.2615 23.2674 16.1561 23.0931 16.1912 22.9535C16.0156 22.6745 15.8751 22.3954 15.6644 22.1163C15.4186 21.7675 15.1376 21.4186 14.8566 21.1046C14.8215 21.0698 14.8215 21.0349 14.7864 21.0349C14.7864 21.0349 14.7864 21 14.7512 21C14.6459 20.8954 14.5756 20.7907 14.4703 20.686C14.4351 20.6512 14.4 20.6163 14.3649 20.5814C14.3298 20.5116 14.2947 20.4767 14.2244 20.4419C14.0488 20.2674 13.8732 20.0931 13.6976 19.9535C13.6273 19.8837 13.5922 19.8488 13.522 19.814C13.4166 19.7093 13.3464 19.6395 13.241 19.5349C13.2059 19.5 13.1708 19.5 13.1708 19.4651C13.1005 19.3953 13.0303 19.3256 12.96 19.2907H12.9249C12.8547 19.2209 12.7844 19.1512 12.679 19.0814C12.5386 18.9419 12.3981 18.8372 12.2576 18.6977C11.9415 18.4186 11.5903 18.1744 11.2742 17.8953C11.1688 17.7907 11.0283 17.6861 10.9229 17.5814C10.6068 17.3721 10.2908 17.1279 10.0098 16.9186C9.30734 16.4302 8.64002 15.907 7.9727 15.3488C6.98929 14.5465 6.04099 13.6744 5.26831 12.6628C4.88197 12.1395 4.49563 11.6163 4.35514 10.9884C4.14441 10.0814 4.17953 9.17442 4.7766 8.37209C5.19807 7.84884 5.76002 7.56977 6.42734 7.43023C7.20002 7.25581 7.93758 7.46511 8.56977 7.81395C8.88587 7.98837 9.20197 8.23256 9.48295 8.44186C9.76392 8.65116 10.08 8.82558 10.4312 8.93023C10.8176 9.03488 11.2039 9 11.5903 8.86046C11.8712 8.7907 12.082 8.65116 12.2927 8.47674C12.7142 8.09302 13.2059 7.77907 13.8029 7.56977C14.7161 7.2907 15.6293 7.25581 16.4722 7.84884C17.0693 8.26744 17.3854 8.89535 17.5259 9.59302C17.7366 10.7093 17.3503 11.6512 16.6829 12.5233C16.5776 12.6628 16.4722 12.8023 16.3668 12.9419C16.121 13.2558 15.84 13.5349 15.5942 13.8489C15.1727 14.3372 14.681 14.7558 14.1893 15.1396C13.9786 15.314 13.7678 15.4884 13.5571 15.6628C13.6976 15.7675 13.8381 15.8721 13.9434 15.9767C14.0488 16.0814 14.1542 16.1512 14.2595 16.2558C14.4351 16.4302 14.6459 16.5698 14.8215 16.7442C14.8566 16.7791 14.9268 16.814 14.962 16.8488C15.0673 16.9186 15.1376 17.0233 15.2429 17.1279C15.4186 17.2674 15.559 17.407 15.6995 17.5117C15.84 17.6512 16.0156 17.7907 16.1561 17.8953C16.3668 18.0698 16.5776 18.2442 16.7883 18.4186C16.8937 18.3488 16.999 18.2442 17.1044 18.1395C17.4205 17.8605 17.7015 17.6163 18.0176 17.3721C18.2283 17.1977 18.4039 16.9884 18.5795 16.7791C18.7551 16.6046 18.9308 16.3953 19.1064 16.1861C19.282 15.9768 19.4225 15.8023 19.5981 15.5931C19.6332 15.5582 19.6332 15.5233 19.6683 15.4884C19.879 15.2093 20.1249 14.9651 20.3356 14.686C20.8976 13.9186 21.319 13.1163 21.5649 12.2093C21.7405 11.6512 21.8108 11.0582 21.8459 10.4651C21.9161 10.2907 21.9161 10.0465 21.881 9.80232Z" fill="#2AB53F"/>
<path d="M28.6247 11.3373C28.3086 11.6512 27.9223 11.8256 27.4657 11.8256C27.0091 11.8256 26.6227 11.6512 26.3066 11.3373C25.9906 11.0233 25.8149 10.6396 25.8149 10.1861C25.8149 9.73261 25.9906 9.38378 26.3066 9.06982C26.6227 8.75587 27.0091 8.58145 27.4657 8.58145C27.9223 8.58145 28.2735 8.75587 28.6247 9.06982C28.9408 9.38378 29.1164 9.7675 29.1164 10.1861C29.1164 10.6396 28.9408 11.0233 28.6247 11.3373ZM26.0608 20.9303V12.4884H28.9057V20.9303H26.0608Z" fill="black"/>
<path d="M35.719 12.2791C36.6322 12.2791 37.4049 12.593 37.9668 13.2209C38.5639 13.8489 38.8449 14.7209 38.8449 15.907V20.9302H36V16.2558C36 15.8023 35.8946 15.4884 35.6488 15.2442C35.438 15.0349 35.1219 14.8954 34.7356 14.8954C34.279 14.8954 33.9629 15.0349 33.6819 15.314C33.4361 15.5582 33.3307 15.9418 33.3307 16.4302V20.9302H30.4858V12.4884H33.3658V13.3256C33.8575 12.6279 34.6654 12.2791 35.719 12.2791Z" fill="black"/>
<path d="M40.3901 20.9302V8.61627H43.235V20.9302H40.3901Z" fill="black"/>
<path d="M48.9951 21.1745C47.7307 21.1745 46.677 20.7559 45.7638 19.8838C44.8858 19.0117 44.4292 17.9652 44.4292 16.7093C44.4292 15.4535 44.8858 14.407 45.7638 13.5349C46.6419 12.6628 47.7307 12.2442 48.9951 12.2442C50.2594 12.2442 51.3482 12.6628 52.2263 13.5349C53.1043 14.407 53.5609 15.4535 53.5609 16.7093C53.5609 17.9652 53.1043 19.0117 52.2263 19.8838C51.3131 20.7559 50.2594 21.1745 48.9951 21.1745ZM48.9951 18.4884C49.4868 18.4884 49.9082 18.314 50.2243 18C50.5404 17.6861 50.716 17.2675 50.716 16.7442C50.716 16.221 50.5404 15.8024 50.2243 15.4884C49.9082 15.1745 49.4868 15 48.9951 15C48.5033 15 48.0819 15.1745 47.7658 15.4884C47.4497 15.8024 47.2741 16.221 47.2741 16.7442C47.2741 17.2675 47.4497 17.6861 47.7658 18C48.0819 18.314 48.5033 18.4884 48.9951 18.4884Z" fill="black"/>
<path d="M59.9182 12.4884H63.044L59.8831 20.9303H56.8275L53.6313 12.4884H56.7572L58.3377 17.3373L59.9182 12.4884Z" fill="black"/>
<path d="M65.9942 17.7559C66.2752 18.4535 66.9074 18.8024 67.8908 18.8024C68.4878 18.8024 69.0147 18.5931 69.4361 18.2093L71.4732 19.6395C70.6303 20.6861 69.401 21.2093 67.8205 21.2093C66.3805 21.2093 65.2215 20.7907 64.3435 19.9535C63.4654 19.1163 63.0439 18.0349 63.0439 16.7791C63.0439 15.5233 63.4654 14.4419 64.3083 13.6047C65.1513 12.7326 66.24 12.314 67.5747 12.314C68.8391 12.314 69.8927 12.7326 70.7356 13.5698C71.5786 14.407 71.9649 15.4884 71.9649 16.7442C71.9649 17.1279 71.9298 17.4768 71.8595 17.7907H65.9942V17.7559ZM65.9591 15.8023H69.2254C69.0147 15 68.4527 14.6163 67.6098 14.6163C66.7669 14.6163 66.2049 15.0349 65.9591 15.8023Z" fill="black"/>
</g>
<defs>
<linearGradient id="paint0_linear" x1="12.7049" y1="19.3199" x2="15.197" y2="16.7842" gradientUnits="userSpaceOnUse">
<stop stop-color="#25983E"/>
<stop offset="1" stop-color="#2AB53F"/>
</linearGradient>
<clipPath id="clip0">
<rect width="72" height="30" fill="white"/>
</clipPath>
</defs>
</svg>
